<?xml version="1.0" encoding="UTF-8" standalone="no"?>
<!DOCTYPE svg PUBLIC "-//W3C//DTD SVG 1.1//EN"
 "http://www.w3.org/Graphics/SVG/1.1/DTD/svg11.dtd">
<!-- Generated by graphviz version 2.43.0 (0)
 -->
<!-- Title: %3 Pages: 1 -->
<svg width="386pt" height="296pt"
 viewBox="0.00 0.00 386.47 296.00" xmlns="http://www.w3.org/2000/svg" xmlns:xlink="http://www.w3.org/1999/xlink">
<g id="graph0" class="graph" transform="scale(1 1) rotate(0) translate(4 292)">
<title>%3</title>
<!-- mlService -->
<g id="node1" class="node product">
<title>mlService</title>
<polygon fill="#586e75" stroke="#586e75" points="203.45,-288 116.55,-288 85.6,-252 234.4,-252 203.45,-288"/>
<text text-anchor="middle" x="160" y="-266.3" font-family="Inter,Arial" font-size="14.00" fill="#ffffff">MlService</text>
</g>
<!-- classifier -->
<g id="node2" class="node product">
<title>classifier</title>
<polygon fill="#586e75" stroke="#586e75" points="135.98,-204 52.02,-204 22.11,-168 165.89,-168 135.98,-204"/>
<text text-anchor="middle" x="94" y="-182.3" font-family="Inter,Arial" font-size="14.00" fill="#ffffff">Classifier</text>
</g>
<!-- mlService&#45;&gt;classifier -->
<g id="edge1" class="edge">
<title>mlService&#45;&gt;classifier</title>
<path fill="none" stroke="#586e75" d="M146,-251.61C136.75,-240.12 124.48,-224.87 114.18,-212.07"/>
<polygon fill="#586e75" stroke="#586e75" points="116.75,-209.68 107.75,-204.08 111.29,-214.07 116.75,-209.68"/>
<text text-anchor="middle" x="154" y="-225.2" font-family="Inter,Arial" font-size="11.00" fill="#586e75">classifier</text>
</g>
<!-- auth -->
<g id="node5" class="node sum">
<title>auth</title>
<polygon fill="#586e75" stroke="#586e75" points="202.16,-168 253.84,-168 272.24,-204 183.76,-204 202.16,-168"/>
<text text-anchor="middle" x="228" y="-182.3" font-family="Inter,Arial" font-size="14.00" fill="#ffffff">Auth</text>
</g>
<!-- mlService&#45;&gt;auth -->
<g id="edge2" class="edge">
<title>mlService&#45;&gt;auth</title>
<path fill="none" stroke="#586e75" d="M174.42,-251.61C183.95,-240.12 196.59,-224.87 207.21,-212.07"/>
<polygon fill="#586e75" stroke="#586e75" points="210.14,-214.02 213.83,-204.08 204.76,-209.55 210.14,-214.02"/>
<text text-anchor="middle" x="211" y="-225.2" font-family="Inter,Arial" font-size="11.00" fill="#586e75">auth</text>
</g>
<!-- classifier_name -->
<!-- classifier&#45;&gt;classifier_name -->
<!-- classifier_classCount -->
<!-- classifier&#45;&gt;classifier_classCount -->
<!-- login -->
<!-- auth&#45;&gt;login -->
<!-- token -->
<!-- auth&#45;&gt;token -->
<!-- login_user -->
<!-- login&#45;&gt;login_user -->
<!-- login_password -->
<!-- login&#45;&gt;login_password -->
<!-- token_token -->
<!-- token&#45;&gt;token_token -->
</g>
</svg>
