<?xml version="1.0" encoding="UTF-8" standalone="no"?>
<!DOCTYPE svg PUBLIC "-//W3C//DTD SVG 1.1//EN"
 "http://www.w3.org/Graphics/SVG/1.1/DTD/svg11.dtd">
<!-- Generated by graphviz version 2.40.1 (20161225.0304)
 -->
<!-- Title: %3 Pages: 1 -->
<svg width="385pt" height="305pt"
 viewBox="0.00 0.00 384.55 305.00" xmlns="http://www.w3.org/2000/svg" xmlns:xlink="http://www.w3.org/1999/xlink">
<g id="graph0" class="graph" transform="scale(1 1) rotate(0) translate(4 301)">
<title>%3</title>
<!-- mlService -->
<g id="node1" class="node">
<title>mlService</title>
<polygon fill="#e1f5fe" stroke="#2980b9" points="200.4738,-297 115.5262,-297 85.273,-261 230.727,-261 200.4738,-297"/>
<text text-anchor="middle" x="158" y="-275.3" font-family="Segoe UI,Roboto,Helvetica,Arial,sans-serif" font-size="14.00" fill="#000000">MlService</text>
</g>
<!-- classifier -->
<g id="node2" class="node">
<title>classifier</title>
<polygon fill="#e1f5fe" stroke="#2980b9" points="134.7131,-210 53.2869,-210 24.2878,-174 163.7122,-174 134.7131,-210"/>
<text text-anchor="middle" x="94" y="-188.3" font-family="Segoe UI,Roboto,Helvetica,Arial,sans-serif" font-size="14.00" fill="#000000">Classifier</text>
</g>
<!-- mlService&#45;&gt;classifier -->
<g id="edge1" class="edge">
<title>mlService&#45;&gt;classifier</title>
<path fill="none" stroke="#2980b9" d="M144.7392,-260.9735C135.643,-248.6085 123.4279,-232.0036 113.2623,-218.1847"/>
<polygon fill="#2980b9" stroke="#2980b9" points="115.9889,-215.9846 107.2439,-210.0034 110.3502,-220.1326 115.9889,-215.9846"/>
<text text-anchor="middle" x="154.5" y="-231.8" font-family="Times,serif" font-size="14.00" fill="#000000">classifier</text>
</g>
<!-- auth -->
<g id="node5" class="node">
<title>auth</title>
<polygon fill="#b2ebf2" stroke="#2980b9" points="198.9241,-174 247.0759,-174 264.2246,-210 181.7754,-210 198.9241,-174"/>
<text text-anchor="middle" x="223" y="-188.3" font-family="Segoe UI,Roboto,Helvetica,Arial,sans-serif" font-size="14.00" fill="#000000">Auth</text>
</g>
<!-- mlService&#45;&gt;auth -->
<g id="edge2" class="edge">
<title>mlService&#45;&gt;auth</title>
<path fill="none" stroke="#2980b9" d="M171.468,-260.9735C180.7063,-248.6085 193.1123,-232.0036 203.4367,-218.1847"/>
<polygon fill="#2980b9" stroke="#2980b9" points="206.3678,-220.1093 209.5492,-210.0034 200.76,-215.9196 206.3678,-220.1093"/>
<text text-anchor="middle" x="207" y="-231.8" font-family="Times,serif" font-size="14.00" fill="#000000">auth</text>
</g>
<!-- classifier_name -->
<!-- classifier&#45;&gt;classifier_name -->
<!-- classifier_classCount -->
<!-- classifier&#45;&gt;classifier_classCount -->
<!-- login -->
<!-- login_user -->
<!-- login&#45;&gt;login_user -->
<!-- login_password -->
<!-- login&#45;&gt;login_password -->
<!-- token -->
<!-- token_token -->
<!-- token&#45;&gt;token_token -->
<!-- auth&#45;&gt;login -->
<!-- auth&#45;&gt;token -->
</g>
</svg>
