<?xml version="1.0" encoding="UTF-8" standalone="no"?>
<!DOCTYPE svg PUBLIC "-//W3C//DTD SVG 1.1//EN"
 "http://www.w3.org/Graphics/SVG/1.1/DTD/svg11.dtd">
<!-- Generated by graphviz version 2.43.0 (0)
 -->
<!-- Title: %3 Pages: 1 -->
<svg width="386pt" height="296pt"
 viewBox="0.00 0.00 386.47 296.00" xmlns="http://www.w3.org/2000/svg" xmlns:xlink="http://www.w3.org/1999/xlink">
<g id="graph0" class="graph" transform="scale(1 1) rotate(0) translate(4 292)">
<title>%3</title>
<!-- mlService -->
<g id="node1" class="node">
<title>mlService</title>
<polygon fill="#c8dee5" stroke="#586e75" points="203.45,-288 116.55,-288 85.6,-252 234.4,-252 203.45,-288"/>
<text text-anchor="middle" x="160" y="-266.3" font-family="Inter,Arial" font-size="14.00" fill="#586e75">MlService</text>
</g>
<!-- classifier -->
<g id="node2" class="node">
<title>classifier</title>
<polygon fill="#c8dee5" stroke="#586e75" points="135.98,-204 52.02,-204 22.11,-168 165.89,-168 135.98,-204"/>
<text text-anchor="middle" x="94" y="-182.3" font-family="Inter,Arial" font-size="14.00" fill="#586e75">Classifier</text>
</g>
<!-- mlService&#45;&gt;classifier -->
<g id="edge1" class="edge">
<title>mlService&#45;&gt;classifier</title>
<path fill="none" stroke="#586e75" d="M146,-251.61C136.75,-240.12 124.48,-224.87 114.18,-212.07"/>
<polygon fill="#586e75" stroke="#586e75" points="116.75,-209.68 107.75,-204.08 111.29,-214.07 116.75,-209.68"/>
<text text-anchor="middle" x="154" y="-225.2" font-family="Inter,Arial" font-size="11.00" fill="#586e75">classifier</text>
</g>
<!-- auth -->
<g id="node5" class="node">
<title>auth</title>
<polygon fill="#c8dee5" stroke="#586e75" points="202.16,-168 253.84,-168 272.24,-204 183.76,-204 202.16,-168"/>
<text text-anchor="middle" x="228" y="-182.3" font-family="Inter,Arial" font-size="14.00" fill="#586e75">Auth</text>
</g>
<!-- mlService&#45;&gt;auth -->
<g id="edge2" class="edge">
<title>mlService&#45;&gt;auth</title>
<path fill="none" stroke="#586e75" d="M174.42,-251.61C183.95,-240.12 196.59,-224.87 207.21,-212.07"/>
<polygon fill="#586e75" stroke="#586e75" points="210.14,-214.02 213.83,-204.08 204.76,-209.55 210.14,-214.02"/>
<text text-anchor="middle" x="211" y="-225.2" font-family="Inter,Arial" font-size="11.00" fill="#586e75">auth</text>
</g>
<!-- classifier_name -->
<g id="node6" class="node">
<title>classifier_name</title>
<path fill="#ffffff" stroke="#586e75" d="M44,-120C44,-120 12,-120 12,-120 6,-120 0,-114 0,-108 0,-108 0,-96 0,-96 0,-90 6,-84 12,-84 12,-84 44,-84 44,-84 50,-84 56,-90 56,-96 56,-96 56,-108 56,-108 56,-114 50,-120 44,-120"/>
<text text-anchor="middle" x="28" y="-98.3" font-family="Inter,Arial" font-size="14.00" fill="#586e75">String</text>
</g>
<!-- classifier&#45;&gt;classifier_name -->
<g id="edge3" class="edge">
<title>classifier&#45;&gt;classifier_name</title>
<path fill="none" stroke="#586e75" d="M78.85,-167.71C74.04,-162.12 68.74,-155.84 64,-150 58.32,-143 52.31,-135.28 46.86,-128.15"/>
<polygon fill="#586e75" stroke="#586e75" points="49.61,-125.99 40.77,-120.14 44.04,-130.22 49.61,-125.99"/>
<text text-anchor="middle" x="79" y="-141.2" font-family="Inter,Arial" font-size="11.00" fill="#586e75">name</text>
</g>
<!-- classifier_classCount -->
<g id="node7" class="node">
<title>classifier_classCount</title>
<path fill="#ffffff" stroke="#586e75" d="M116,-120C116,-120 86,-120 86,-120 80,-120 74,-114 74,-108 74,-108 74,-96 74,-96 74,-90 80,-84 86,-84 86,-84 116,-84 116,-84 122,-84 128,-90 128,-96 128,-96 128,-108 128,-108 128,-114 122,-120 116,-120"/>
<text text-anchor="middle" x="101" y="-98.3" font-family="Inter,Arial" font-size="14.00" fill="#586e75">Int</text>
</g>
<!-- classifier&#45;&gt;classifier_classCount -->
<g id="edge4" class="edge">
<title>classifier&#45;&gt;classifier_classCount</title>
<path fill="none" stroke="#586e75" d="M95.48,-167.61C96.41,-156.77 97.62,-142.6 98.67,-130.29"/>
<polygon fill="#586e75" stroke="#586e75" points="102.18,-130.35 99.54,-120.08 95.2,-129.75 102.18,-130.35"/>
<text text-anchor="middle" x="127.5" y="-141.2" font-family="Inter,Arial" font-size="11.00" fill="#586e75">classCount</text>
</g>
<!-- login -->
<!-- login_user -->
<!-- login&#45;&gt;login_user -->
<!-- login_password -->
<!-- login&#45;&gt;login_password -->
<!-- token -->
<!-- token_token -->
<!-- token&#45;&gt;token_token -->
<!-- auth&#45;&gt;login -->
<!-- auth&#45;&gt;token -->
</g>
</svg>
